<mxfile host="app.diagrams.net" modified="2023-01-16T05:20:45.570Z" agent="5.0 (Windows NT 10.0; Win64; x64) AppleWebKit/537.36 (KHTML, like Gecko) Chrome/109.0.0.0 Safari/537.36" version="20.8.4" etag="hyttYxuzRRqyXCInvFfT" type="github" pages="2">
  <diagram id="PJ08jYsrU4o8tMX44UYF" name="DFD Logical Child 3">
    <mxGraphModel dx="2317" dy="1860" grid="1" gridSize="10" guides="1" tooltips="1" connect="1" arrows="1" fold="1" page="1" pageScale="1" pageWidth="850" pageHeight="1100" math="0" shadow="0">
      <root>
        <mxCell id="0" />
        <mxCell id="1" parent="0" />
        <mxCell id="mA2S6nLQZY7dSyy3L60T-2" value="&lt;div style=&quot;display: flex; justify-content: center; text-align: center; align-items: baseline; font-size: 0; line-height: 1.25;margin-top: -2px;&quot;&gt;&lt;span&gt;&lt;span style=&quot;font-size:25px;color:#3a414a;&quot;&gt;3.1&lt;/span&gt;&lt;/span&gt;&lt;/div&gt;" style="shape=swimlane;html=1;rounded=1;arcSize=10;collapsible=0;fontStyle=0;startSize=47;whiteSpace=wrap;overflow=block;blockSpacing=1;fontSize=13;spacing=0;strokeColor=#3a414a;strokeOpacity=100;strokeWidth=0.8;" vertex="1" parent="1">
          <mxGeometry x="229" y="-55" width="315" height="270" as="geometry" />
        </mxCell>
        <mxCell id="mA2S6nLQZY7dSyy3L60T-3" value="&lt;div style=&quot;display: flex; justify-content: center; text-align: center; align-items: baseline; font-size: 0; line-height: 1.25;margin-top: -2px;&quot;&gt;&lt;span&gt;&lt;span style=&quot;font-size:24.3px;color:#000000;font-weight: bold;&quot;&gt;Fill biodata form&lt;/span&gt;&lt;/span&gt;&lt;/div&gt;" style="rounded=1;arcSize=10;strokeColor=none;fillColor=none;whiteSpace=wrap;overflow=block;blockSpacing=1;html=1;fontSize=13;spacing=0;strokeOpacity=100;strokeWidth=0.8;" vertex="1" parent="mA2S6nLQZY7dSyy3L60T-2">
          <mxGeometry y="47" width="315" height="223" as="geometry" />
        </mxCell>
        <UserObject label="" lucidchartObjectId="O.umqnft9LC3" id="mA2S6nLQZY7dSyy3L60T-4">
          <mxCell style="html=1;jettySize=18;whiteSpace=wrap;fontSize=13;strokeColor=#3a414a;strokeOpacity=100;strokeWidth=0.8;rounded=0;startArrow=none;endArrow=block;endFill=1;exitX=0.5;exitY=1.001;exitPerimeter=0;entryX=0.5;entryY=0;entryDx=0;entryDy=0;" edge="1" parent="1" source="mA2S6nLQZY7dSyy3L60T-2" target="mA2S6nLQZY7dSyy3L60T-24">
            <mxGeometry width="100" height="100" relative="1" as="geometry">
              <Array as="points" />
              <mxPoint x="386" y="364" as="targetPoint" />
            </mxGeometry>
          </mxCell>
        </UserObject>
        <mxCell id="mA2S6nLQZY7dSyy3L60T-24" value="&lt;div style=&quot;display: flex; justify-content: center; text-align: center; align-items: baseline; font-size: 0; line-height: 1.25;margin-top: -2px;&quot;&gt;&lt;span&gt;&lt;span style=&quot;font-size:25px;color:#3a414a;&quot;&gt;3.2&lt;/span&gt;&lt;/span&gt;&lt;/div&gt;" style="shape=swimlane;html=1;rounded=1;arcSize=10;collapsible=0;fontStyle=0;startSize=47;whiteSpace=wrap;overflow=block;blockSpacing=1;fontSize=13;spacing=0;strokeColor=#3a414a;strokeOpacity=100;strokeWidth=0.8;" vertex="1" parent="1">
          <mxGeometry x="229" y="320" width="315" height="270" as="geometry" />
        </mxCell>
        <mxCell id="mA2S6nLQZY7dSyy3L60T-25" value="&lt;div style=&quot;display: flex; justify-content: center; text-align: center; align-items: baseline; font-size: 0; line-height: 1.25;margin-top: -2px;&quot;&gt;&lt;span&gt;&lt;span style=&quot;font-size:24.3px;color:#000000;font-weight: bold;&quot;&gt;Answer psychological test&lt;/span&gt;&lt;/span&gt;&lt;/div&gt;" style="rounded=1;arcSize=10;strokeColor=none;fillColor=none;whiteSpace=wrap;overflow=block;blockSpacing=1;html=1;fontSize=13;spacing=0;strokeOpacity=100;strokeWidth=0.8;" vertex="1" parent="mA2S6nLQZY7dSyy3L60T-24">
          <mxGeometry x="40" y="47" width="230" height="223" as="geometry" />
        </mxCell>
        <mxCell id="mA2S6nLQZY7dSyy3L60T-28" value="&lt;div style=&quot;display: flex; justify-content: center; text-align: center; align-items: baseline; font-size: 0; line-height: 1.25;margin-top: -2px;&quot;&gt;&lt;span&gt;&lt;span style=&quot;font-size:25px;color:#3a414a;&quot;&gt;3.3&lt;/span&gt;&lt;/span&gt;&lt;/div&gt;" style="shape=swimlane;html=1;rounded=1;arcSize=10;collapsible=0;fontStyle=0;startSize=47;whiteSpace=wrap;overflow=block;blockSpacing=1;fontSize=13;spacing=0;strokeColor=#3a414a;strokeOpacity=100;strokeWidth=0.8;" vertex="1" parent="1">
          <mxGeometry x="226.5" y="690" width="315" height="270" as="geometry" />
        </mxCell>
        <mxCell id="mA2S6nLQZY7dSyy3L60T-29" value="&lt;div style=&quot;display: flex; justify-content: center; text-align: center; align-items: baseline; font-size: 0; line-height: 1.25;margin-top: -2px;&quot;&gt;&lt;span&gt;&lt;span style=&quot;font-size:24.3px;color:#000000;font-weight: bold;&quot;&gt;Generate psychological test result&lt;/span&gt;&lt;/span&gt;&lt;/div&gt;" style="rounded=1;arcSize=10;strokeColor=none;fillColor=none;whiteSpace=wrap;overflow=block;blockSpacing=1;html=1;fontSize=13;spacing=0;strokeOpacity=100;strokeWidth=0.8;" vertex="1" parent="mA2S6nLQZY7dSyy3L60T-28">
          <mxGeometry y="47" width="315" height="223" as="geometry" />
        </mxCell>
        <mxCell id="mA2S6nLQZY7dSyy3L60T-30" style="edgeStyle=orthogonalEdgeStyle;rounded=0;orthogonalLoop=1;jettySize=auto;html=1;entryX=0.5;entryY=0;entryDx=0;entryDy=0;" edge="1" parent="1" source="mA2S6nLQZY7dSyy3L60T-25" target="mA2S6nLQZY7dSyy3L60T-28">
          <mxGeometry relative="1" as="geometry" />
        </mxCell>
        <mxCell id="mA2S6nLQZY7dSyy3L60T-35" style="edgeStyle=orthogonalEdgeStyle;rounded=0;orthogonalLoop=1;jettySize=auto;html=1;" edge="1" parent="1">
          <mxGeometry relative="1" as="geometry">
            <mxPoint x="394" y="-240" as="sourcePoint" />
            <mxPoint x="394" y="-60" as="targetPoint" />
          </mxGeometry>
        </mxCell>
        <UserObject label="Client Info" lucidchartObjectId="O.um8.nbu8y." id="mA2S6nLQZY7dSyy3L60T-36">
          <mxCell style="html=1;overflow=block;blockSpacing=1;whiteSpace=wrap;fontSize=15;fontColor=#3a414a;spacing=0;fillColor=none;strokeWidth=1.5;strokeColor=none;" vertex="1" parent="1">
            <mxGeometry x="370" y="-170" width="180" height="45" as="geometry" />
          </mxCell>
        </UserObject>
        <UserObject label="Client Biodata" lucidchartObjectId="O.um8.nbu8y." id="mA2S6nLQZY7dSyy3L60T-37">
          <mxCell style="html=1;overflow=block;blockSpacing=1;whiteSpace=wrap;fontSize=15;fontColor=#3a414a;spacing=0;fillColor=none;strokeWidth=1.5;strokeColor=none;" vertex="1" parent="1">
            <mxGeometry x="364" y="250" width="180" height="45" as="geometry" />
          </mxCell>
        </UserObject>
        <UserObject label="" lucidchartObjectId="3evmLD2rtNwP" id="mA2S6nLQZY7dSyy3L60T-38">
          <mxCell style="html=1;jettySize=18;whiteSpace=wrap;fontSize=13;strokeColor=#3a414a;strokeOpacity=100;strokeWidth=0.8;rounded=0;startArrow=none;endArrow=block;endFill=1;exitX=1;exitY=0.525;exitPerimeter=0;entryX=-0.001;entryY=0.709;entryPerimeter=0;" edge="1" parent="1">
            <mxGeometry width="100" height="100" relative="1" as="geometry">
              <Array as="points" />
              <mxPoint x="-29.68" y="454.43999999999977" as="sourcePoint" />
              <mxPoint x="229.00499999999994" y="455.11999999999983" as="targetPoint" />
            </mxGeometry>
          </mxCell>
        </UserObject>
        <UserObject label="" lucidchartObjectId="3evmLD2rtNwP" id="mA2S6nLQZY7dSyy3L60T-39">
          <mxCell style="html=1;jettySize=18;whiteSpace=wrap;fontSize=13;strokeColor=#3a414a;strokeOpacity=100;strokeWidth=0.8;rounded=0;startArrow=none;endArrow=block;endFill=1;exitX=1;exitY=0.525;exitPerimeter=0;entryX=-0.001;entryY=0.709;entryPerimeter=0;" edge="1" parent="1">
            <mxGeometry width="100" height="100" relative="1" as="geometry">
              <Array as="points" />
              <mxPoint x="544.9999999999999" y="454.4399999999996" as="sourcePoint" />
              <mxPoint x="803.6850000000001" y="455.1199999999999" as="targetPoint" />
            </mxGeometry>
          </mxCell>
        </UserObject>
        <mxCell id="mA2S6nLQZY7dSyy3L60T-40" value="&amp;nbsp;Client Result" style="html=1;overflow=block;blockSpacing=1;shape=partialRectangle;right=0;whiteSpace=wrap;fontSize=20;fontColor=#3a414a;spacing=0;strokeColor=#3a414a;strokeOpacity=100;rounded=1;absoluteArcSize=1;arcSize=9;strokeWidth=0.8;" vertex="1" parent="1">
          <mxGeometry x="219" y="1070" width="330" height="30" as="geometry" />
        </mxCell>
        <mxCell id="mA2S6nLQZY7dSyy3L60T-41" value="D3" style="part=1;whiteSpace=wrap;fontSize=20;fontColor=#3a414a;spacing=0;strokeColor=#3a414a;strokeOpacity=100;rounded=1;absoluteArcSize=1;arcSize=9;strokeWidth=0.8;" vertex="1" parent="mA2S6nLQZY7dSyy3L60T-40">
          <mxGeometry width="66" height="30" as="geometry" />
        </mxCell>
        <mxCell id="mA2S6nLQZY7dSyy3L60T-42" style="edgeStyle=orthogonalEdgeStyle;rounded=0;orthogonalLoop=1;jettySize=auto;html=1;entryX=0.5;entryY=0;entryDx=0;entryDy=0;" edge="1" parent="1" source="mA2S6nLQZY7dSyy3L60T-29" target="mA2S6nLQZY7dSyy3L60T-40">
          <mxGeometry relative="1" as="geometry" />
        </mxCell>
        <UserObject label="" lucidchartObjectId="3evmLD2rtNwP" id="mA2S6nLQZY7dSyy3L60T-43">
          <mxCell style="html=1;jettySize=18;whiteSpace=wrap;fontSize=13;strokeColor=#3a414a;strokeOpacity=100;strokeWidth=0.8;rounded=0;startArrow=none;endArrow=block;endFill=1;exitX=1;exitY=0.525;exitPerimeter=0;entryX=-0.001;entryY=0.709;entryPerimeter=0;" edge="1" parent="1">
            <mxGeometry width="100" height="100" relative="1" as="geometry">
              <Array as="points" />
              <mxPoint x="800.185" y="830.6799999999998" as="sourcePoint" />
              <mxPoint x="541.5" y="830" as="targetPoint" />
            </mxGeometry>
          </mxCell>
        </UserObject>
        <UserObject label="" lucidchartObjectId="3evmLD2rtNwP" id="mA2S6nLQZY7dSyy3L60T-44">
          <mxCell style="html=1;jettySize=18;whiteSpace=wrap;fontSize=13;strokeColor=#3a414a;strokeOpacity=100;strokeWidth=0.8;rounded=0;startArrow=none;endArrow=block;endFill=1;exitX=1;exitY=0.525;exitPerimeter=0;entryX=-0.001;entryY=0.709;entryPerimeter=0;" edge="1" parent="1">
            <mxGeometry width="100" height="100" relative="1" as="geometry">
              <Array as="points" />
              <mxPoint x="230.18499999999995" y="830.6799999999998" as="sourcePoint" />
              <mxPoint x="-28.5" y="830" as="targetPoint" />
            </mxGeometry>
          </mxCell>
        </UserObject>
        <UserObject label="Test Report" lucidchartObjectId="O.um8.nbu8y." id="mA2S6nLQZY7dSyy3L60T-45">
          <mxCell style="html=1;overflow=block;blockSpacing=1;whiteSpace=wrap;fontSize=15;fontColor=#3a414a;spacing=0;fillColor=none;strokeWidth=1.5;strokeColor=none;" vertex="1" parent="1">
            <mxGeometry x="369" y="620" width="180" height="45" as="geometry" />
          </mxCell>
        </UserObject>
        <UserObject label="Validated Test Answer" lucidchartObjectId="O.um8.nbu8y." id="mA2S6nLQZY7dSyy3L60T-46">
          <mxCell style="html=1;overflow=block;blockSpacing=1;whiteSpace=wrap;fontSize=15;fontColor=#3a414a;spacing=0;fillColor=none;strokeWidth=1.5;strokeColor=none;" vertex="1" parent="1">
            <mxGeometry x="550" y="410" width="180" height="45" as="geometry" />
          </mxCell>
        </UserObject>
        <UserObject label="Test Answer" lucidchartObjectId="O.um8.nbu8y." id="mA2S6nLQZY7dSyy3L60T-47">
          <mxCell style="html=1;overflow=block;blockSpacing=1;whiteSpace=wrap;fontSize=15;fontColor=#3a414a;spacing=0;fillColor=none;strokeWidth=1.5;strokeColor=none;" vertex="1" parent="1">
            <mxGeometry x="10" y="410" width="180" height="45" as="geometry" />
          </mxCell>
        </UserObject>
        <UserObject label="Client Summary" lucidchartObjectId="O.um8.nbu8y." id="mA2S6nLQZY7dSyy3L60T-48">
          <mxCell style="html=1;overflow=block;blockSpacing=1;whiteSpace=wrap;fontSize=15;fontColor=#3a414a;spacing=0;fillColor=none;strokeWidth=1.5;strokeColor=none;" vertex="1" parent="1">
            <mxGeometry x="20" y="780" width="180" height="45" as="geometry" />
          </mxCell>
        </UserObject>
        <UserObject label="Client Analysis Report" lucidchartObjectId="O.um8.nbu8y." id="mA2S6nLQZY7dSyy3L60T-49">
          <mxCell style="html=1;overflow=block;blockSpacing=1;whiteSpace=wrap;fontSize=15;fontColor=#3a414a;spacing=0;fillColor=none;strokeWidth=1.5;strokeColor=none;" vertex="1" parent="1">
            <mxGeometry x="590" y="780" width="180" height="45" as="geometry" />
          </mxCell>
        </UserObject>
        <UserObject label="Psycological Officer" lucidchartObjectId="O.um8.nbu8y." id="mA2S6nLQZY7dSyy3L60T-50">
          <mxCell style="html=1;overflow=block;blockSpacing=1;whiteSpace=wrap;fontSize=15;fontColor=#3a414a;spacing=0;fillColor=none;strokeWidth=1.5;strokeColor=none;fontStyle=1" vertex="1" parent="1">
            <mxGeometry x="810" y="432.5" width="180" height="45" as="geometry" />
          </mxCell>
        </UserObject>
        <UserObject label="Psycological Officer" lucidchartObjectId="O.um8.nbu8y." id="mA2S6nLQZY7dSyy3L60T-51">
          <mxCell style="html=1;overflow=block;blockSpacing=1;whiteSpace=wrap;fontSize=15;fontColor=#3a414a;spacing=0;fillColor=none;strokeWidth=1.5;strokeColor=none;fontStyle=1" vertex="1" parent="1">
            <mxGeometry x="810" y="810" width="180" height="45" as="geometry" />
          </mxCell>
        </UserObject>
        <UserObject label="Client" lucidchartObjectId="O.um8.nbu8y." id="mA2S6nLQZY7dSyy3L60T-52">
          <mxCell style="html=1;overflow=block;blockSpacing=1;whiteSpace=wrap;fontSize=15;fontColor=#3a414a;spacing=0;fillColor=none;strokeWidth=1.5;strokeColor=none;fontStyle=1" vertex="1" parent="1">
            <mxGeometry x="-151" y="806.5" width="180" height="45" as="geometry" />
          </mxCell>
        </UserObject>
        <UserObject label="Client" lucidchartObjectId="O.um8.nbu8y." id="mA2S6nLQZY7dSyy3L60T-53">
          <mxCell style="html=1;overflow=block;blockSpacing=1;whiteSpace=wrap;fontSize=15;fontColor=#3a414a;spacing=0;fillColor=none;strokeWidth=1.5;strokeColor=none;fontStyle=1" vertex="1" parent="1">
            <mxGeometry x="-151" y="432.5" width="180" height="45" as="geometry" />
          </mxCell>
        </UserObject>
        <UserObject label="Psychological Test Result" lucidchartObjectId="O.um8.nbu8y." id="mA2S6nLQZY7dSyy3L60T-54">
          <mxCell style="html=1;overflow=block;blockSpacing=1;whiteSpace=wrap;fontSize=15;fontColor=#3a414a;spacing=0;fillColor=none;strokeWidth=1.5;strokeColor=none;" vertex="1" parent="1">
            <mxGeometry x="390" y="990" width="180" height="45" as="geometry" />
          </mxCell>
        </UserObject>
      </root>
    </mxGraphModel>
  </diagram>
  <diagram id="mFP1FNmv81MztRNagsoU" name="Page-2">
    <mxGraphModel dx="2083" dy="2407" grid="1" gridSize="10" guides="1" tooltips="1" connect="1" arrows="1" fold="1" page="1" pageScale="1" pageWidth="850" pageHeight="1100" math="0" shadow="0">
      <root>
        <mxCell id="0" />
        <mxCell id="1" parent="0" />
        <mxCell id="zd0Lne6BtFSpODAgyh90-1" value="&lt;div style=&quot;display: flex; justify-content: center; text-align: center; align-items: baseline; font-size: 0; line-height: 1.25;margin-top: -2px;&quot;&gt;&lt;span&gt;&lt;span style=&quot;font-size:25px;color:#3a414a;&quot;&gt;3.1&lt;/span&gt;&lt;/span&gt;&lt;/div&gt;" style="shape=swimlane;html=1;rounded=1;arcSize=10;collapsible=0;fontStyle=0;startSize=47;whiteSpace=wrap;overflow=block;blockSpacing=1;fontSize=13;spacing=0;strokeColor=#3a414a;strokeOpacity=100;strokeWidth=0.8;" vertex="1" parent="1">
          <mxGeometry x="1370" y="-220" width="300" height="220" as="geometry" />
        </mxCell>
        <mxCell id="zd0Lne6BtFSpODAgyh90-2" value="&lt;div style=&quot;display: flex; justify-content: center; text-align: center; align-items: baseline; font-size: 0; line-height: 1.25;margin-top: -2px;&quot;&gt;&lt;span&gt;&lt;span style=&quot;font-size:24.3px;color:#000000;font-weight: bold;&quot;&gt;Types Client information&lt;/span&gt;&lt;/span&gt;&lt;/div&gt;" style="rounded=1;arcSize=10;strokeColor=none;fillColor=none;whiteSpace=wrap;overflow=block;blockSpacing=1;html=1;fontSize=13;spacing=0;strokeOpacity=100;strokeWidth=0.8;" vertex="1" parent="zd0Lne6BtFSpODAgyh90-1">
          <mxGeometry y="47" width="300" height="173" as="geometry" />
        </mxCell>
        <mxCell id="zd0Lne6BtFSpODAgyh90-3" style="edgeStyle=orthogonalEdgeStyle;rounded=0;orthogonalLoop=1;jettySize=auto;html=1;" edge="1" parent="1">
          <mxGeometry relative="1" as="geometry">
            <mxPoint x="1514.000000000001" y="-400" as="sourcePoint" />
            <mxPoint x="1514.000000000001" y="-220" as="targetPoint" />
          </mxGeometry>
        </mxCell>
        <UserObject label="Client Information" lucidchartObjectId="O.um8.nbu8y." id="zd0Lne6BtFSpODAgyh90-4">
          <mxCell style="html=1;overflow=block;blockSpacing=1;whiteSpace=wrap;fontSize=15;fontColor=#3a414a;spacing=0;fillColor=none;strokeWidth=1.5;strokeColor=none;" vertex="1" parent="1">
            <mxGeometry x="1510" y="-330" width="180" height="45" as="geometry" />
          </mxCell>
        </UserObject>
        <mxCell id="zd0Lne6BtFSpODAgyh90-5" style="edgeStyle=orthogonalEdgeStyle;rounded=0;orthogonalLoop=1;jettySize=auto;html=1;" edge="1" parent="1" source="zd0Lne6BtFSpODAgyh90-2">
          <mxGeometry relative="1" as="geometry">
            <mxPoint x="1520" y="140" as="targetPoint" />
          </mxGeometry>
        </mxCell>
        <mxCell id="zd0Lne6BtFSpODAgyh90-6" value="&lt;div style=&quot;display: flex; justify-content: center; text-align: center; align-items: baseline; font-size: 0; line-height: 1.25;margin-top: -2px;&quot;&gt;&lt;span&gt;&lt;span style=&quot;font-size:25px;color:#3a414a;&quot;&gt;3.2&lt;/span&gt;&lt;/span&gt;&lt;/div&gt;" style="shape=swimlane;html=1;rounded=1;arcSize=10;collapsible=0;fontStyle=0;startSize=47;whiteSpace=wrap;overflow=block;blockSpacing=1;fontSize=13;spacing=0;strokeColor=#3a414a;strokeOpacity=100;strokeWidth=0.8;" vertex="1" parent="1">
          <mxGeometry x="1370" y="140" width="300" height="220" as="geometry" />
        </mxCell>
        <mxCell id="zd0Lne6BtFSpODAgyh90-7" value="&lt;div style=&quot;display: flex; justify-content: center; text-align: center; align-items: baseline; font-size: 0; line-height: 1.25;margin-top: -2px;&quot;&gt;&lt;span&gt;&lt;span style=&quot;font-size:24.3px;color:#000000;font-weight: bold;&quot;&gt;Validates Client information&lt;/span&gt;&lt;/span&gt;&lt;/div&gt;" style="rounded=1;arcSize=10;strokeColor=none;fillColor=none;whiteSpace=wrap;overflow=block;blockSpacing=1;html=1;fontSize=13;spacing=0;strokeOpacity=100;strokeWidth=0.8;" vertex="1" parent="zd0Lne6BtFSpODAgyh90-6">
          <mxGeometry y="47" width="300" height="173" as="geometry" />
        </mxCell>
        <UserObject label="Recorded Client Information" lucidchartObjectId="O.um8.nbu8y." id="zd0Lne6BtFSpODAgyh90-8">
          <mxCell style="html=1;overflow=block;blockSpacing=1;whiteSpace=wrap;fontSize=15;fontColor=#3a414a;spacing=0;fillColor=none;strokeWidth=1.5;strokeColor=none;" vertex="1" parent="1">
            <mxGeometry x="1520" y="40" width="180" height="45" as="geometry" />
          </mxCell>
        </UserObject>
        <mxCell id="zd0Lne6BtFSpODAgyh90-9" style="edgeStyle=orthogonalEdgeStyle;rounded=0;orthogonalLoop=1;jettySize=auto;html=1;" edge="1" parent="1" source="zd0Lne6BtFSpODAgyh90-7">
          <mxGeometry relative="1" as="geometry">
            <mxPoint x="1850" y="274" as="targetPoint" />
          </mxGeometry>
        </mxCell>
        <UserObject label="Syntax Errors" lucidchartObjectId="O.um8.nbu8y." id="zd0Lne6BtFSpODAgyh90-10">
          <mxCell style="html=1;overflow=block;blockSpacing=1;whiteSpace=wrap;fontSize=15;fontColor=#3a414a;spacing=0;fillColor=none;strokeWidth=1.5;strokeColor=none;" vertex="1" parent="1">
            <mxGeometry x="1660" y="227.5" width="180" height="45" as="geometry" />
          </mxCell>
        </UserObject>
        <UserObject label="Valid Client Information" lucidchartObjectId="O.um8.nbu8y." id="zd0Lne6BtFSpODAgyh90-12">
          <mxCell style="html=1;overflow=block;blockSpacing=1;whiteSpace=wrap;fontSize=15;fontColor=#3a414a;spacing=0;fillColor=none;strokeWidth=1.5;strokeColor=none;" vertex="1" parent="1">
            <mxGeometry x="1520" y="420" width="180" height="45" as="geometry" />
          </mxCell>
        </UserObject>
        <mxCell id="zd0Lne6BtFSpODAgyh90-15" style="edgeStyle=orthogonalEdgeStyle;rounded=0;orthogonalLoop=1;jettySize=auto;html=1;exitX=0.5;exitY=1;exitDx=0;exitDy=0;entryX=0.5;entryY=0;entryDx=0;entryDy=0;" edge="1" parent="1" source="zd0Lne6BtFSpODAgyh90-7" target="zd0Lne6BtFSpODAgyh90-16">
          <mxGeometry relative="1" as="geometry">
            <mxPoint x="1520" y="620" as="targetPoint" />
            <mxPoint x="1520" y="530.0000000000005" as="sourcePoint" />
          </mxGeometry>
        </mxCell>
        <mxCell id="zd0Lne6BtFSpODAgyh90-16" value="&lt;div style=&quot;display: flex; justify-content: center; text-align: center; align-items: baseline; font-size: 0; line-height: 1.25;margin-top: -2px;&quot;&gt;&lt;span&gt;&lt;span style=&quot;font-size:25px;color:#3a414a;&quot;&gt;3.3&lt;/span&gt;&lt;/span&gt;&lt;/div&gt;" style="shape=swimlane;html=1;rounded=1;arcSize=10;collapsible=0;fontStyle=0;startSize=47;whiteSpace=wrap;overflow=block;blockSpacing=1;fontSize=13;spacing=0;strokeColor=#3a414a;strokeOpacity=100;strokeWidth=0.8;" vertex="1" parent="1">
          <mxGeometry x="1370" y="550" width="300" height="220" as="geometry" />
        </mxCell>
        <mxCell id="zd0Lne6BtFSpODAgyh90-17" value="&lt;div style=&quot;display: flex; justify-content: center; text-align: center; align-items: baseline; font-size: 0; line-height: 1.25;margin-top: -2px;&quot;&gt;&lt;span&gt;&lt;span style=&quot;font-size:24.3px;color:#000000;font-weight: bold;&quot;&gt;Types Psychological Test Answers&lt;/span&gt;&lt;/span&gt;&lt;/div&gt;" style="rounded=1;arcSize=10;strokeColor=none;fillColor=none;whiteSpace=wrap;overflow=block;blockSpacing=1;html=1;fontSize=13;spacing=0;strokeOpacity=100;strokeWidth=0.8;" vertex="1" parent="zd0Lne6BtFSpODAgyh90-16">
          <mxGeometry y="47" width="300" height="173" as="geometry" />
        </mxCell>
        <mxCell id="zd0Lne6BtFSpODAgyh90-18" style="edgeStyle=orthogonalEdgeStyle;rounded=0;orthogonalLoop=1;jettySize=auto;html=1;entryX=0;entryY=0.5;entryDx=0;entryDy=0;" edge="1" parent="1" target="zd0Lne6BtFSpODAgyh90-17">
          <mxGeometry relative="1" as="geometry">
            <mxPoint x="1180" y="683.545454545454" as="sourcePoint" />
            <Array as="points">
              <mxPoint x="1250" y="684" />
            </Array>
          </mxGeometry>
        </mxCell>
        <UserObject label="Test Answers" lucidchartObjectId="O.um8.nbu8y." id="zd0Lne6BtFSpODAgyh90-19">
          <mxCell style="html=1;overflow=block;blockSpacing=1;whiteSpace=wrap;fontSize=15;fontColor=#3a414a;spacing=0;fillColor=none;strokeWidth=1.5;strokeColor=none;" vertex="1" parent="1">
            <mxGeometry x="1180" y="630" width="180" height="45" as="geometry" />
          </mxCell>
        </UserObject>
        <mxCell id="CdC1o3udZqMT-pNn81uE-22" style="edgeStyle=orthogonalEdgeStyle;rounded=0;orthogonalLoop=1;jettySize=auto;html=1;" edge="1" parent="1" source="zd0Lne6BtFSpODAgyh90-21">
          <mxGeometry relative="1" as="geometry">
            <mxPoint x="2570" y="440" as="targetPoint" />
          </mxGeometry>
        </mxCell>
        <mxCell id="zd0Lne6BtFSpODAgyh90-21" value="&lt;div style=&quot;display: flex; justify-content: center; text-align: center; align-items: baseline; font-size: 0; line-height: 1.25;margin-top: -2px;&quot;&gt;&lt;span&gt;&lt;span style=&quot;font-size:25px;color:#3a414a;&quot;&gt;3.5&lt;/span&gt;&lt;/span&gt;&lt;/div&gt;" style="shape=swimlane;html=1;rounded=1;arcSize=10;collapsible=0;fontStyle=0;startSize=47;whiteSpace=wrap;overflow=block;blockSpacing=1;fontSize=13;spacing=0;strokeColor=#3a414a;strokeOpacity=100;strokeWidth=0.8;" vertex="1" parent="1">
          <mxGeometry x="2420" y="550" width="300" height="220" as="geometry" />
        </mxCell>
        <mxCell id="zd0Lne6BtFSpODAgyh90-22" value="&lt;div style=&quot;display: flex; justify-content: center; text-align: center; align-items: baseline; line-height: 1.25; margin-top: -2px;&quot;&gt;&lt;span style=&quot;font-size: 0px;&quot;&gt;Validates Client information&lt;/span&gt;&lt;span style=&quot;font-size: 24.3px;&quot;&gt;&lt;b&gt;Validates Psychological Test Answers&lt;/b&gt;&lt;/span&gt;&lt;/div&gt;" style="rounded=1;arcSize=10;strokeColor=none;fillColor=none;whiteSpace=wrap;overflow=block;blockSpacing=1;html=1;fontSize=13;spacing=0;strokeOpacity=100;strokeWidth=0.8;" vertex="1" parent="zd0Lne6BtFSpODAgyh90-21">
          <mxGeometry y="47" width="300" height="173" as="geometry" />
        </mxCell>
        <mxCell id="CdC1o3udZqMT-pNn81uE-2" style="edgeStyle=orthogonalEdgeStyle;rounded=0;orthogonalLoop=1;jettySize=auto;html=1;" edge="1" parent="1" source="zd0Lne6BtFSpODAgyh90-22">
          <mxGeometry relative="1" as="geometry">
            <mxPoint x="3000" y="684" as="targetPoint" />
          </mxGeometry>
        </mxCell>
        <mxCell id="CdC1o3udZqMT-pNn81uE-3" value="&lt;div style=&quot;display: flex; justify-content: center; text-align: center; align-items: baseline; font-size: 0; line-height: 1.25;margin-top: -2px;&quot;&gt;&lt;span&gt;&lt;span style=&quot;font-size:25px;color:#3a414a;&quot;&gt;3.6&lt;/span&gt;&lt;/span&gt;&lt;/div&gt;" style="shape=swimlane;html=1;rounded=1;arcSize=10;collapsible=0;fontStyle=0;startSize=47;whiteSpace=wrap;overflow=block;blockSpacing=1;fontSize=13;spacing=0;strokeColor=#3a414a;strokeOpacity=100;strokeWidth=0.8;" vertex="1" parent="1">
          <mxGeometry x="3000" y="550" width="300" height="220" as="geometry" />
        </mxCell>
        <mxCell id="CdC1o3udZqMT-pNn81uE-4" value="&lt;div style=&quot;display: flex; justify-content: center; text-align: center; align-items: baseline; line-height: 1.25; margin-top: -2px;&quot;&gt;&lt;span style=&quot;font-size: 0px;&quot;&gt;Validates Client information&lt;/span&gt;&lt;span style=&quot;font-size: 24.3px;&quot;&gt;&lt;b&gt;Analysing Psychological Test Answers&lt;/b&gt;&lt;/span&gt;&lt;/div&gt;" style="rounded=1;arcSize=10;strokeColor=none;fillColor=none;whiteSpace=wrap;overflow=block;blockSpacing=1;html=1;fontSize=13;spacing=0;strokeOpacity=100;strokeWidth=0.8;" vertex="1" parent="CdC1o3udZqMT-pNn81uE-3">
          <mxGeometry y="47" width="300" height="173" as="geometry" />
        </mxCell>
        <UserObject label="Unorganized Test Answers" lucidchartObjectId="O.um8.nbu8y." id="CdC1o3udZqMT-pNn81uE-14">
          <mxCell style="html=1;overflow=block;blockSpacing=1;whiteSpace=wrap;fontSize=15;fontColor=#3a414a;spacing=0;fillColor=none;strokeWidth=1.5;strokeColor=none;" vertex="1" parent="1">
            <mxGeometry x="1690" y="630" width="180" height="45" as="geometry" />
          </mxCell>
        </UserObject>
        <UserObject label="Syntax Errors" lucidchartObjectId="O.um8.nbu8y." id="CdC1o3udZqMT-pNn81uE-23">
          <mxCell style="html=1;overflow=block;blockSpacing=1;whiteSpace=wrap;fontSize=15;fontColor=#3a414a;spacing=0;fillColor=none;strokeWidth=1.5;strokeColor=none;" vertex="1" parent="1">
            <mxGeometry x="2550" y="490" width="180" height="45" as="geometry" />
          </mxCell>
        </UserObject>
        <UserObject label="Validated Test Answers" lucidchartObjectId="O.um8.nbu8y." id="CdC1o3udZqMT-pNn81uE-26">
          <mxCell style="html=1;overflow=block;blockSpacing=1;whiteSpace=wrap;fontSize=15;fontColor=#3a414a;spacing=0;fillColor=none;strokeWidth=1.5;strokeColor=none;" vertex="1" parent="1">
            <mxGeometry x="2760" y="630" width="180" height="45" as="geometry" />
          </mxCell>
        </UserObject>
        <mxCell id="2Go5BcXwaLuRWtCtzfvT-2" style="edgeStyle=orthogonalEdgeStyle;rounded=0;orthogonalLoop=1;jettySize=auto;html=1;" edge="1" parent="1" source="CdC1o3udZqMT-pNn81uE-4">
          <mxGeometry relative="1" as="geometry">
            <mxPoint x="3150" y="930" as="targetPoint" />
          </mxGeometry>
        </mxCell>
        <UserObject label="Analysed Test Answers" lucidchartObjectId="O.um8.nbu8y." id="2Go5BcXwaLuRWtCtzfvT-3">
          <mxCell style="html=1;overflow=block;blockSpacing=1;whiteSpace=wrap;fontSize=15;fontColor=#3a414a;spacing=0;fillColor=none;strokeWidth=1.5;strokeColor=none;" vertex="1" parent="1">
            <mxGeometry x="3170" y="820" width="180" height="45" as="geometry" />
          </mxCell>
        </UserObject>
        <mxCell id="2Go5BcXwaLuRWtCtzfvT-4" value="&lt;div style=&quot;display: flex; justify-content: center; text-align: center; align-items: baseline; font-size: 0; line-height: 1.25;margin-top: -2px;&quot;&gt;&lt;span&gt;&lt;span style=&quot;font-size:25px;color:#3a414a;&quot;&gt;3.7&lt;/span&gt;&lt;/span&gt;&lt;/div&gt;" style="shape=swimlane;html=1;rounded=1;arcSize=10;collapsible=0;fontStyle=0;startSize=47;whiteSpace=wrap;overflow=block;blockSpacing=1;fontSize=13;spacing=0;strokeColor=#3a414a;strokeOpacity=100;strokeWidth=0.8;" vertex="1" parent="1">
          <mxGeometry x="3000" y="930" width="300" height="220" as="geometry" />
        </mxCell>
        <mxCell id="2Go5BcXwaLuRWtCtzfvT-5" value="&lt;div style=&quot;display: flex; justify-content: center; text-align: center; align-items: baseline; line-height: 1.25; margin-top: -2px;&quot;&gt;&lt;span style=&quot;font-size: 0px;&quot;&gt;Validates Client information&lt;/span&gt;&lt;span style=&quot;font-size: 24.3px;&quot;&gt;&lt;b&gt;Generate Client Analysis Report&lt;/b&gt;&lt;/span&gt;&lt;/div&gt;" style="rounded=1;arcSize=10;strokeColor=none;fillColor=none;whiteSpace=wrap;overflow=block;blockSpacing=1;html=1;fontSize=13;spacing=0;strokeOpacity=100;strokeWidth=0.8;" vertex="1" parent="2Go5BcXwaLuRWtCtzfvT-4">
          <mxGeometry y="47" width="300" height="173" as="geometry" />
        </mxCell>
        <mxCell id="FE-yP56PrbubDbvOp87g-2" style="edgeStyle=orthogonalEdgeStyle;rounded=0;orthogonalLoop=1;jettySize=auto;html=1;" edge="1" parent="1" source="zd0Lne6BtFSpODAgyh90-17">
          <mxGeometry relative="1" as="geometry">
            <mxPoint x="1910" y="683" as="targetPoint" />
          </mxGeometry>
        </mxCell>
        <mxCell id="MtN-1jyHPPweIq3uZ_51-1" value="&lt;div style=&quot;display: flex; justify-content: center; text-align: center; align-items: baseline; font-size: 0; line-height: 1.25;margin-top: -2px;&quot;&gt;&lt;span&gt;&lt;span style=&quot;font-size:25px;color:#3a414a;&quot;&gt;3.4&lt;/span&gt;&lt;/span&gt;&lt;/div&gt;" style="shape=swimlane;html=1;rounded=1;arcSize=10;collapsible=0;fontStyle=0;startSize=47;whiteSpace=wrap;overflow=block;blockSpacing=1;fontSize=13;spacing=0;strokeColor=#3a414a;strokeOpacity=100;strokeWidth=0.8;" vertex="1" parent="1">
          <mxGeometry x="1910" y="550" width="300" height="220" as="geometry" />
        </mxCell>
        <mxCell id="MtN-1jyHPPweIq3uZ_51-2" value="&lt;div style=&quot;display: flex; justify-content: center; text-align: center; align-items: baseline; font-size: 0; line-height: 1.25;margin-top: -2px;&quot;&gt;&lt;span&gt;&lt;span style=&quot;font-size:24.3px;color:#000000;font-weight: bold;&quot;&gt;Sort Psychological Test Answers&lt;/span&gt;&lt;/span&gt;&lt;/div&gt;" style="rounded=1;arcSize=10;strokeColor=none;fillColor=none;whiteSpace=wrap;overflow=block;blockSpacing=1;html=1;fontSize=13;spacing=0;strokeOpacity=100;strokeWidth=0.8;" vertex="1" parent="MtN-1jyHPPweIq3uZ_51-1">
          <mxGeometry y="47" width="300" height="173" as="geometry" />
        </mxCell>
        <mxCell id="MtN-1jyHPPweIq3uZ_51-4" style="edgeStyle=orthogonalEdgeStyle;rounded=0;orthogonalLoop=1;jettySize=auto;html=1;" edge="1" parent="1" source="MtN-1jyHPPweIq3uZ_51-2">
          <mxGeometry relative="1" as="geometry">
            <mxPoint x="2420" y="683" as="targetPoint" />
          </mxGeometry>
        </mxCell>
        <UserObject label="Organized Test Answers" lucidchartObjectId="O.um8.nbu8y." id="FCMD3LmSV8bOgRvMi4zS-1">
          <mxCell style="html=1;overflow=block;blockSpacing=1;whiteSpace=wrap;fontSize=15;fontColor=#3a414a;spacing=0;fillColor=none;strokeWidth=1.5;strokeColor=none;" vertex="1" parent="1">
            <mxGeometry x="2220" y="637.5" width="180" height="45" as="geometry" />
          </mxCell>
        </UserObject>
        <mxCell id="1eV37dJR5UpbzrK00-uQ-3" value="&lt;div style=&quot;display: flex; justify-content: center; text-align: center; align-items: baseline; font-size: 0; line-height: 1.25;margin-top: -2px;&quot;&gt;&lt;span&gt;&lt;span style=&quot;font-size:25px;color:#3a414a;&quot;&gt;3.8&lt;/span&gt;&lt;/span&gt;&lt;/div&gt;" style="shape=swimlane;html=1;rounded=1;arcSize=10;collapsible=0;fontStyle=0;startSize=47;whiteSpace=wrap;overflow=block;blockSpacing=1;fontSize=13;spacing=0;strokeColor=#3a414a;strokeOpacity=100;strokeWidth=0.8;" vertex="1" parent="1">
          <mxGeometry x="2420" y="930" width="300" height="220" as="geometry" />
        </mxCell>
        <mxCell id="1eV37dJR5UpbzrK00-uQ-4" value="&lt;div style=&quot;display: flex; justify-content: center; text-align: center; align-items: baseline; line-height: 1.25; margin-top: -2px;&quot;&gt;&lt;span style=&quot;font-size: 0px;&quot;&gt;Validates Client information&lt;/span&gt;&lt;span style=&quot;font-size: 24.3px;&quot;&gt;&lt;b&gt;Summarizing Test Result&lt;/b&gt;&lt;/span&gt;&lt;/div&gt;" style="rounded=1;arcSize=10;strokeColor=none;fillColor=none;whiteSpace=wrap;overflow=block;blockSpacing=1;html=1;fontSize=13;spacing=0;strokeOpacity=100;strokeWidth=0.8;" vertex="1" parent="1eV37dJR5UpbzrK00-uQ-3">
          <mxGeometry y="47" width="300" height="173" as="geometry" />
        </mxCell>
        <mxCell id="1eV37dJR5UpbzrK00-uQ-5" style="edgeStyle=orthogonalEdgeStyle;rounded=0;orthogonalLoop=1;jettySize=auto;html=1;entryX=1;entryY=0.5;entryDx=0;entryDy=0;" edge="1" parent="1" source="2Go5BcXwaLuRWtCtzfvT-5" target="1eV37dJR5UpbzrK00-uQ-4">
          <mxGeometry relative="1" as="geometry" />
        </mxCell>
        <UserObject label="Client Analysis Report" lucidchartObjectId="O.um8.nbu8y." id="eih78Fj02-lh9wxQZ0yt-1">
          <mxCell style="html=1;overflow=block;blockSpacing=1;whiteSpace=wrap;fontSize=15;fontColor=#3a414a;spacing=0;fillColor=none;strokeWidth=1.5;strokeColor=none;" vertex="1" parent="1">
            <mxGeometry x="2770" y="1017.5" width="180" height="45" as="geometry" />
          </mxCell>
        </UserObject>
        <mxCell id="6LXdLl5Y5LscIVABb-Rh-2" style="edgeStyle=orthogonalEdgeStyle;rounded=0;orthogonalLoop=1;jettySize=auto;html=1;entryX=1;entryY=0.5;entryDx=0;entryDy=0;" edge="1" parent="1" source="1eV37dJR5UpbzrK00-uQ-4" target="6LXdLl5Y5LscIVABb-Rh-4">
          <mxGeometry relative="1" as="geometry">
            <mxPoint x="2330" y="1063.5000000000005" as="targetPoint" />
          </mxGeometry>
        </mxCell>
        <mxCell id="6LXdLl5Y5LscIVABb-Rh-3" value="&lt;div style=&quot;display: flex; justify-content: center; text-align: center; align-items: baseline; font-size: 0; line-height: 1.25;margin-top: -2px;&quot;&gt;&lt;span&gt;&lt;span style=&quot;font-size:25px;color:#3a414a;&quot;&gt;3.9&lt;/span&gt;&lt;/span&gt;&lt;/div&gt;" style="shape=swimlane;html=1;rounded=1;arcSize=10;collapsible=0;fontStyle=0;startSize=47;whiteSpace=wrap;overflow=block;blockSpacing=1;fontSize=13;spacing=0;strokeColor=#3a414a;strokeOpacity=100;strokeWidth=0.8;" vertex="1" parent="1">
          <mxGeometry x="1910" y="930" width="300" height="220" as="geometry" />
        </mxCell>
        <mxCell id="6LXdLl5Y5LscIVABb-Rh-4" value="&lt;div style=&quot;display: flex; justify-content: center; text-align: center; align-items: baseline; line-height: 1.25; margin-top: -2px;&quot;&gt;&lt;span style=&quot;font-size: 0px;&quot;&gt;Validates Client information&lt;/span&gt;&lt;span style=&quot;font-size: 24.3px;&quot;&gt;&lt;b&gt;Sending Summarized Report To Client By Email&lt;/b&gt;&lt;/span&gt;&lt;/div&gt;" style="rounded=1;arcSize=10;strokeColor=none;fillColor=none;whiteSpace=wrap;overflow=block;blockSpacing=1;html=1;fontSize=13;spacing=0;strokeOpacity=100;strokeWidth=0.8;" vertex="1" parent="6LXdLl5Y5LscIVABb-Rh-3">
          <mxGeometry y="47" width="300" height="173" as="geometry" />
        </mxCell>
        <mxCell id="WHp8vcULoV3ybUIoCtm_-2" style="edgeStyle=orthogonalEdgeStyle;rounded=0;orthogonalLoop=1;jettySize=auto;html=1;" edge="1" parent="1" source="6LXdLl5Y5LscIVABb-Rh-4">
          <mxGeometry relative="1" as="geometry">
            <mxPoint x="1690" y="1063" as="targetPoint" />
          </mxGeometry>
        </mxCell>
        <mxCell id="qCPR5UqJmId1gLNeRVQ9-1" value="&amp;nbsp;Client Result" style="html=1;overflow=block;blockSpacing=1;shape=partialRectangle;right=0;whiteSpace=wrap;fontSize=20;fontColor=#3a414a;spacing=0;strokeColor=#3a414a;strokeOpacity=100;rounded=1;absoluteArcSize=1;arcSize=9;strokeWidth=0.8;" vertex="1" parent="1">
          <mxGeometry x="2400" y="1260" width="330" height="30" as="geometry" />
        </mxCell>
        <mxCell id="qCPR5UqJmId1gLNeRVQ9-2" value="D3" style="part=1;whiteSpace=wrap;fontSize=20;fontColor=#3a414a;spacing=0;strokeColor=#3a414a;strokeOpacity=100;rounded=1;absoluteArcSize=1;arcSize=9;strokeWidth=0.8;" vertex="1" parent="qCPR5UqJmId1gLNeRVQ9-1">
          <mxGeometry width="66" height="30" as="geometry" />
        </mxCell>
        <mxCell id="qCPR5UqJmId1gLNeRVQ9-3" style="edgeStyle=orthogonalEdgeStyle;rounded=0;orthogonalLoop=1;jettySize=auto;html=1;entryX=0.5;entryY=0;entryDx=0;entryDy=0;" edge="1" parent="1" target="qCPR5UqJmId1gLNeRVQ9-1">
          <mxGeometry relative="1" as="geometry">
            <mxPoint x="2565" y="1150" as="sourcePoint" />
          </mxGeometry>
        </mxCell>
        <UserObject label="Psychological Test Result" lucidchartObjectId="O.um8.nbu8y." id="qCPR5UqJmId1gLNeRVQ9-4">
          <mxCell style="html=1;overflow=block;blockSpacing=1;whiteSpace=wrap;fontSize=15;fontColor=#3a414a;spacing=0;fillColor=none;strokeWidth=1.5;strokeColor=none;" vertex="1" parent="1">
            <mxGeometry x="2571" y="1180" width="180" height="45" as="geometry" />
          </mxCell>
        </UserObject>
        <UserObject label="Final Client Summary" lucidchartObjectId="O.um8.nbu8y." id="L_Fi6jqVZnGVkhERSiM4-1">
          <mxCell style="html=1;overflow=block;blockSpacing=1;whiteSpace=wrap;fontSize=15;fontColor=#3a414a;spacing=0;fillColor=none;strokeWidth=1.5;strokeColor=none;" vertex="1" parent="1">
            <mxGeometry x="1720" y="1017.5" width="180" height="45" as="geometry" />
          </mxCell>
        </UserObject>
        <UserObject label="Summarized Test Result" lucidchartObjectId="O.um8.nbu8y." id="_PGekSq6mjzQMi84UrHI-1">
          <mxCell style="html=1;overflow=block;blockSpacing=1;whiteSpace=wrap;fontSize=15;fontColor=#3a414a;spacing=0;fillColor=none;strokeWidth=1.5;strokeColor=none;" vertex="1" parent="1">
            <mxGeometry x="2230" y="1017.5" width="180" height="45" as="geometry" />
          </mxCell>
        </UserObject>
      </root>
    </mxGraphModel>
  </diagram>
</mxfile>
